<svg width="1920" height="359" viewBox="0 0 1920 359" fill="none" xmlns="http://www.w3.org/2000/svg">
<path fill-rule="evenodd" clip-rule="evenodd" d="M-123 359V286.927C-32.9058 286.927 94.6328 274.814 271.554 238.913C537.272 185.242 714.662 221.768 911.992 262.4C1057.3 292.32 1213.42 324.466 1423.58 324.466C1567.15 324.466 1647.1 313.322 1719.87 303.18C1780.64 294.71 1836.39 286.939 1920 286.939V359H-123Z" fill="#5BA7E1" fill-opacity="0.4"/>
<path fill-rule="evenodd" clip-rule="evenodd" d="M0 359V299.548C84.67 299.548 204.53 289.556 370.8 259.942C620.52 215.669 787.23 245.799 972.68 279.316C1109.24 303.996 1255.96 330.513 1453.47 330.513C1588.39 330.513 1663.53 321.321 1731.92 312.955C1789.03 305.968 1841.43 299.558 1920 299.558V359H0Z" fill="#061a28"/>
<path fill-rule="evenodd" clip-rule="evenodd" d="M-734 359V182.985C-616.961 182.985 -451.28 153.404 -221.446 65.7259C123.74 -65.3477 354.182 23.8547 610.527 123.086C799.29 196.155 1002.1 274.661 1275.12 274.661C1461.62 274.661 1565.49 247.446 1660.02 222.678C1738.96 201.993 1811.39 183.015 1920 183.015V359H-734Z" fill="#082032" fill-opacity="0.05"/>
</svg>
