<svg width="1920" height="179" viewBox="0 0 1920 179" fill="none" xmlns="http://www.w3.org/2000/svg">
<path fill-rule="evenodd" clip-rule="evenodd" d="M1920 179V91.2379C1835.33 91.2379 1715.47 76.4883 1549.2 32.7714C1299.48 -32.5829 1132.77 11.8941 947.32 61.3714C810.762 97.8041 664.042 136.948 466.533 136.948C331.607 136.948 256.468 123.378 188.082 111.029C130.974 100.715 78.5746 91.2525 0 91.2525V179H1920Z" fill="#5BA7E1" fill-opacity="0.5"/>
<path fill-rule="evenodd" clip-rule="evenodd" d="M0 179V91.2379C84.67 91.2379 204.53 76.4883 370.8 32.7714C620.52 -32.5828 787.23 11.8941 972.68 61.3714C1109.24 97.8041 1255.96 136.948 1453.47 136.948C1588.39 136.948 1663.53 123.378 1731.92 111.029C1789.03 100.715 1841.43 91.2525 1920 91.2525V179H0Z" fill="white"/>
</svg>
