<svg xmlns="http://www.w3.org/2000/svg" version="1.1" xmlns:xlink="http://www.w3.org/1999/xlink" xmlns:svgjs="http://svgjs.com/svgjs" width="512" height="512" x="0" y="0" viewBox="0 0 8.467 8.467" style="enable-background:new 0 0 512 512" xml:space="preserve" class=""><g><g fill-rule="evenodd"><path d="M6.484 4.303c.073 0 .132.06.132.133v.592h.396v-.592c0-.095.097-.159.184-.122a.99.99 0 0 1 .59.718 1 1 0 0 1-.508 1.073v.643h-.265V6.02c0-.053.032-.101.081-.122a.726.726 0 0 0 .184-1.228v.49c0 .074-.06.133-.132.133h-.662a.132.132 0 0 1-.132-.132v-.495a.726.726 0 0 0 .182 1.232c.05.02.081.069.081.122v.596h-.264v-.51a.991.991 0 0 1 .082-1.792.131.131 0 0 1 .051-.011zM6.147 3.362l-.244.103c.019.045.027.095.021.145l-.022.198c-.012.107-.048.182-.12.225l-.063.037a.563.563 0 0 0-.223.245l-.358.767a.88.88 0 0 1-.799.504h-.08a.88.88 0 0 1-.798-.504l-.36-.767a.563.563 0 0 0-.222-.245l-.063-.037c-.072-.043-.108-.118-.12-.225l-.022-.198a.302.302 0 0 1 .02-.146l-.243-.101a.558.558 0 0 0-.04.277l.022.197a.547.547 0 0 0 .248.424l.063.037c.052.03.092.076.118.13l.359.766c.187.4.592.657 1.037.657h.08c.445 0 .85-.256 1.038-.657l.359-.766a.3.3 0 0 1 .118-.13l.063-.037a.547.547 0 0 0 .248-.424l.022-.197a.557.557 0 0 0-.04-.278z" fill="#1343ab" data-original="#000000" opacity="1" class=""></path><path d="M3.382 5.69a.132.132 0 0 0-.13.12l-.019.2a.385.385 0 0 1-.061.184.222.222 0 0 1-.155.093l-1.075.199-.286.049a.927.927 0 0 0-.746.628l-.374 1.13a.132.132 0 0 0 .125.174h7.277a.132.132 0 0 0 .125-.174l-.37-1.121a.927.927 0 0 0-.763-.63l-.286-.05-1.063-.188c-.085-.015-.125-.062-.17-.17a.132.132 0 0 0-.003-.005.384.384 0 0 1-.033-.12l-.02-.2a.132.132 0 1 0-.263.027l.02.199c.006.073.027.14.054.2.063.152.183.297.368.33l1.063.187.292.05a.132.132 0 0 0 .006 0 .662.662 0 0 1 .545.452l.313.947H.843l.316-.956a.662.662 0 0 1 .534-.45.132.132 0 0 0 .002 0l.293-.05 1.075-.2a.507.507 0 0 0 .32-.198c.07-.096.101-.206.111-.313l.02-.2a.132.132 0 0 0-.134-.146z" fill="#1343ab" data-original="#000000" opacity="1" class=""></path><path d="m5.364 6.237-.205.118c-.607.35-1.212.32-1.79-.079l-.05-.034-.15.218.05.034c.647.448 1.39.484 2.073.09l.205-.119z" fill="#1343ab" data-original="#000000" opacity="1" class=""></path><path d="M2.649 6.483v.926h3.31v-.926h-.264v.662H2.913v-.662zM1.988 6.615v1.72h.264v-1.72zM6.356 6.615v1.72h.264v-1.72zM4.301.133c-.517 0-1.035.13-1.501.39l-.078.043a.716.716 0 0 0-.366.588L2.25 3.17a.322.322 0 0 0 .32.336.873.873 0 0 0 .307-.056l.194-.073a3.305 3.305 0 0 1 2.437.044l.142.06-.014-.007a.8.8 0 0 0 .299.098h.015a.4.4 0 0 0 .397-.417l-.102-2.002A.715.715 0 0 0 5.88.565L5.802.522a3.083 3.083 0 0 0-1.501-.39zm0 .265c.473 0 .946.119 1.373.356l.077.043a.45.45 0 0 1 .23.37l.103 2.002c.004.076-.055.133-.13.136a.544.544 0 0 1-.187-.061L5.76 3.24l-.15-.063a3.569 3.569 0 0 0-2.632-.048l-.194.073a.608.608 0 0 1-.214.04.053.053 0 0 1-.056-.059l.106-2.016a.45.45 0 0 1 .231-.37l.077-.043c.427-.237.9-.356 1.373-.356z" fill="#1343ab" data-original="#000000" opacity="1" class=""></path><path d="M4.297 1.854a3.614 3.614 0 0 0-1.32.224l-.176.065a.668.668 0 0 1-.232.042h-.187v.264h.187c.11 0 .22-.019.324-.058l.176-.065a3.35 3.35 0 0 1 2.438.044l.182.074c.112.046.233.07.355.07h.172V2.25h-.172a.672.672 0 0 1-.255-.05l-.182-.075a3.612 3.612 0 0 0-1.31-.271z" fill="#1343ab" data-original="#000000" opacity="1" class=""></path></g><path d="M3.77.927a.132.132 0 0 0-.132.132v.463a.132.132 0 0 0 .132.132h1.058a.132.132 0 0 0 .132-.132V1.06a.132.132 0 0 0-.132-.132zm.132.264h.794v.199h-.794z" fill="#1343ab" data-original="#000000" opacity="1" class=""></path></g></svg>