<svg width="1917" height="217" viewBox="0 0 1917 217" fill="none" xmlns="http://www.w3.org/2000/svg">
<path fill-rule="evenodd" clip-rule="evenodd" d="M-126 0V106.393C-35.9058 106.393 91.6328 124.274 268.554 177.272C534.272 256.5 711.662 202.581 908.992 142.6C1054.3 98.4331 1210.42 50.9792 1420.58 50.9792C1564.15 50.9792 1644.1 67.4297 1716.87 82.4006C1777.64 94.9038 1833.39 106.375 1917 106.375V0H-126Z" fill="#5BA7E1" fill-opacity="0.3"/>
<path fill-rule="evenodd" clip-rule="evenodd" d="M-3 0V87.7621C81.67 87.7621 201.53 102.512 367.8 146.229C617.52 211.583 784.23 167.106 969.68 117.629C1106.24 81.1959 1252.96 42.052 1450.47 42.052C1585.39 42.052 1660.53 55.6217 1728.92 67.971C1786.03 78.2847 1838.43 87.7475 1917 87.7475V0H-3Z" fill="#2c394b"/>
</svg>
