<svg width="1920" height="217" viewBox="0 0 1920 217" fill="none" xmlns="http://www.w3.org/2000/svg">
<path fill-rule="evenodd" clip-rule="evenodd" d="M2042 217V110.607C1951.91 110.607 1824.37 92.7261 1647.45 39.7285C1381.73 -39.4999 1204.34 14.4191 1007.01 74.3999C861.701 118.567 705.582 166.021 495.42 166.021C351.851 166.021 271.898 149.57 199.131 134.599C138.365 122.096 82.6083 110.625 -1 110.625V217H2042Z" fill="#5BA7E1" fill-opacity="0.3"/>
<path fill-rule="evenodd" clip-rule="evenodd" d="M1919 217V129.238C1834.33 129.238 1714.47 114.488 1548.2 70.7714C1298.48 5.41715 1131.77 49.8941 946.32 99.3714C809.762 135.804 663.042 174.948 465.533 174.948C330.607 174.948 255.468 161.378 187.082 149.029C129.974 138.715 77.5746 129.252 -1 129.252V217H1919Z" fill="#F7F7F7"/>
</svg>
