<svg width="100" height="104" viewBox="0 0 100 104" fill="none" xmlns="http://www.w3.org/2000/svg">
<path d="M15.862 94.2984C18.9012 97.396 22.4079 100.168 26.4322 101.863C29.9974 103.357 33.9633 103.75 37.6203 102.347C42.0287 100.652 45.1346 96.6696 47.2637 92.6118C48.7749 89.723 49.9689 86.6755 51.3799 83.7365C52.8911 80.5972 54.5443 77.4996 56.6316 74.6942C58.6271 72.0141 61.0902 69.6011 64.1293 68.1484C67.0933 66.7206 70.4748 66.4034 73.6892 66.9795C76.3276 67.447 78.8575 68.4239 81.5293 68.666C83.8838 68.8747 86.2382 68.3988 88.384 67.4387C89.0854 67.2466 89.7784 66.9795 90.4463 66.6204C92.8926 65.2845 94.7545 63.0302 96.1322 60.6423C99.1379 55.424 100.349 49.2957 99.9144 43.3259C98.8874 29.249 90.3545 16.7334 78.7907 9.01027C68.4793 2.13045 55.6631 -1.28442 43.3145 0.44389C37.1026 1.31222 31.0661 3.58323 25.8812 7.13168C20.8048 10.6133 16.2878 15.0301 12.4555 19.8393C5.25839 28.8649 0.808235 39.9194 0.106894 51.4665C-0.5527 62.2371 1.84355 73.35 7.2038 82.7346C9.5917 86.9092 12.4889 90.8585 15.862 94.2984Z" fill="#5BA7E1" fill-opacity="0.2"/>
<path d="M39.2066 82.6682C36.9773 82.7767 34.7481 82.9353 32.5271 83.1691C30.2645 83.4029 28.0102 83.7202 25.7559 83.979C23.5934 84.2295 21.4309 84.4466 19.2518 84.5551C17.131 84.6636 15.0354 84.6052 12.9147 84.5384C11.4535 84.4967 9.9256 84.5468 8.42273 84.7638C8.58972 85.031 8.75671 85.2898 8.92369 85.5487C10.0008 85.4151 11.0778 85.365 12.1131 85.365C13.1067 85.365 14.1003 85.4401 15.1022 85.4568C16.1709 85.4819 17.2479 85.4652 18.3167 85.4318C20.4207 85.3566 22.508 85.1729 24.6037 84.9475C26.8329 84.7054 29.0622 84.3965 31.2914 84.1376C33.504 83.8788 35.7333 83.6951 37.9626 83.5699C42.4211 83.3111 46.8796 83.261 51.3465 83.2693C51.43 83.2693 51.5218 83.2693 51.6053 83.2693C51.7389 82.9854 51.8808 82.7099 52.0228 82.426C47.7396 82.426 43.4731 82.4594 39.2066 82.6682Z" fill="white"/>
<path d="M49.8856 70.4446C48.1322 70.4029 46.454 70.0856 44.7591 69.6598C43.1644 69.2507 41.5697 68.7664 39.9332 68.541C38.447 68.3323 36.9692 68.3657 35.5081 68.7163C34.2223 69.0169 33.0033 69.5429 31.776 70.0355C30.5486 70.5281 29.2879 70.9707 27.9603 71.0875C26.3823 71.2295 24.7709 71.1961 23.1929 71.2295C21.5397 71.2629 19.8949 71.2796 18.2417 71.2879C17.4652 71.2879 16.6804 71.3213 15.9039 71.2128C15.1775 71.1126 14.4595 70.9206 13.7665 70.6784C12.439 70.2192 11.1782 69.5847 9.86738 69.067C8.54819 68.5494 7.20397 68.2154 5.78459 68.1569C4.55724 68.1068 3.32988 68.2571 2.14428 68.5661C1.9773 68.6078 1.81867 68.6579 1.66003 68.6996C1.72683 68.9752 1.79362 69.2507 1.86877 69.5262C2.28623 69.401 2.7037 69.2841 3.12116 69.2006C4.34016 68.9585 5.60926 68.9167 6.83661 69.0837C8.21424 69.2757 9.50838 69.7934 10.7691 70.3528C12.0382 70.9039 13.3157 71.4883 14.6599 71.8223C16.121 72.1813 17.6072 72.1312 19.0934 72.1229C20.7382 72.1145 22.3746 72.0895 24.0195 72.0477C25.5307 72.0143 27.092 72.0728 28.5865 71.8473C31.1748 71.4466 33.4208 70.0105 35.9673 69.4678C39.1066 68.7915 42.1374 69.8936 45.1515 70.6283C46.7713 71.0208 48.3911 71.2712 50.0526 71.2963C51.8811 71.3297 53.7096 71.1961 55.5381 71.0875C57.0242 71.0041 58.4854 70.9623 59.9548 70.9957C60.2721 70.7118 60.5977 70.4363 60.9317 70.1691C60.7146 70.1524 60.4975 70.1441 60.2805 70.1357C56.8155 69.9687 53.3506 70.5198 49.8856 70.4446Z" fill="white"/>
<path d="M7.34578 44.5118C8.96555 43.9441 10.4434 43.0507 12.013 42.3744C13.8165 41.5979 15.7034 41.2222 17.6655 41.1638C21.9153 41.0385 26.09 42.1323 30.2145 42.9756C32.2267 43.393 34.2556 43.7604 36.3011 43.9608C37.3532 44.061 38.4219 44.1194 39.4822 44.0944C40.3506 44.0777 41.2439 44.0526 42.0705 43.7437C43.5483 43.1843 44.7005 41.8735 46.3954 42.0822C48.0653 42.2826 49.3261 43.6769 50.5367 44.7122C51.931 45.8978 53.3838 46.5908 55.229 46.7578C57.2245 46.9415 59.1949 46.4823 61.1487 46.1149C62.209 45.9145 63.2861 45.7475 64.3715 45.7225C65.5237 45.6974 66.6759 45.831 67.8281 45.8561C70.0407 45.9145 72.2532 45.831 74.4575 45.6223C78.8659 45.2215 83.2159 44.3699 87.5659 43.6018C91.6236 42.8837 95.6229 41.8067 99.6306 40.7881C99.5888 40.5042 99.5471 40.2287 99.5053 39.9531C96.6415 40.6879 93.7861 41.4477 90.9306 42.0822C86.5472 43.0507 82.0804 43.8189 77.6302 44.42C75.5262 44.7039 73.4054 44.9126 71.2847 44.9961C70.1576 45.0379 69.0304 45.0462 67.9116 45.0212C66.7594 44.9961 65.5989 44.8625 64.4467 44.8792C60.5809 44.9293 56.0556 47.2671 52.4153 45.0712C50.9959 44.2196 49.9272 42.8837 48.5245 42.0071C47.197 41.1721 45.644 40.955 44.1996 41.6313C43.5233 41.9486 42.9222 42.3995 42.2626 42.7334C41.436 43.1509 40.5593 43.2177 39.6492 43.2428C37.5368 43.3095 35.4328 43.0674 33.3622 42.7167C29.2293 42.0154 25.1632 40.8716 20.9802 40.4541C19.0014 40.2537 16.9892 40.237 15.0188 40.571C13.232 40.8799 11.5956 41.5979 9.97581 42.3911C8.39779 43.176 6.79473 43.9691 5.02468 44.2029C3.69714 44.3783 2.37794 44.2447 1.07545 43.9691C1.02536 44.228 0.966917 44.4952 0.925171 44.7623C3.05424 45.2048 5.18332 45.2716 7.34578 44.5118Z" fill="white"/>
<path d="M22.892 20.7418C24.8791 19.8401 26.3987 18.1452 28.6196 17.7527C31.2413 17.2852 33.8964 18.212 36.5264 17.903C37.9875 17.7361 39.3234 17.1933 40.676 16.6673C42.3125 16.0244 44.0157 15.5819 45.7524 15.3231C48.9168 14.8555 52.1312 14.9724 55.3123 14.8221C57.0573 14.7386 58.7856 14.5633 60.5056 14.2627C62.3675 13.9455 64.2628 13.7785 66.1497 13.695C69.9403 13.5364 73.7392 13.7284 77.5298 13.7868C79.9427 13.8202 82.3724 13.862 84.7853 13.6783C84.4848 13.4028 84.1842 13.1356 83.8753 12.8684C82.8233 12.9352 81.7712 12.9603 80.7109 12.9603C76.937 12.9603 73.1715 12.7933 69.406 12.7849C67.5023 12.7849 65.5903 12.835 63.695 13.002C61.8665 13.1606 60.0631 13.5364 58.2429 13.7367C54.9533 14.1125 51.647 13.9705 48.349 14.1876C46.7543 14.2961 45.1596 14.4965 43.5983 14.8639C41.8616 15.273 40.2669 15.9994 38.572 16.5588C37.4114 16.9429 36.2342 17.1433 35.0068 17.1015C33.7127 17.0514 32.4352 16.8761 31.1411 16.8093C29.7384 16.7425 28.3274 16.8009 27.0165 17.3353C26.0313 17.736 25.1797 18.3539 24.303 18.955C23.3011 19.6397 22.2408 20.2074 21.0468 20.4913C19.6191 20.8336 18.1329 20.6917 16.7219 20.3577C15.4444 20.0655 14.2087 19.6313 12.9647 19.2139C12.7977 19.4143 12.6391 19.623 12.4721 19.8234C12.447 19.8484 12.4303 19.8818 12.4053 19.9069C13.1734 20.1573 13.9332 20.4245 14.693 20.6667C17.4065 21.5266 20.2119 21.9608 22.892 20.7418Z" fill="white"/>
<path d="M5.50911 56.794C7.04538 56.2179 8.51488 56.101 10.1263 56.3933C12.3055 56.794 14.4345 57.4787 16.5552 58.1216C18.7344 58.7812 20.9553 59.399 23.243 59.5242C25.5057 59.6495 27.6849 59.207 29.7889 58.3887C31.751 57.6289 33.6212 56.6604 35.6501 56.076C37.8125 55.4581 40.0084 55.4581 42.1792 56.0008C46.2203 57.0195 49.7938 59.4992 53.9684 60.0503C56.373 60.3675 58.7443 59.9334 61.1238 59.6328C62.3011 59.4825 63.4867 59.374 64.6806 59.4241C65.8662 59.4741 66.8013 59.7914 67.8784 60.2673C68.7384 60.6514 69.6568 61.0522 70.617 61.0271C71.4686 61.0104 72.3202 60.6681 73.0466 60.2256C74.633 59.2571 75.7685 57.7542 77.6554 57.3033C81.972 56.2597 86.5558 59.0149 90.7388 56.961C91.4401 56.6103 92.058 56.1261 92.7175 55.7086C93.636 55.1242 94.6295 54.7484 95.7149 54.6649C96.7169 54.5898 97.7188 54.6733 98.7207 54.6733C98.8042 54.3894 98.8877 54.1055 98.9628 53.8217C98.7792 53.83 98.5955 53.83 98.4034 53.83C97.2512 53.8133 96.0907 53.7215 94.9468 53.9135C93.995 54.0805 93.0933 54.4729 92.275 54.9906C91.6405 55.3997 91.0477 55.8756 90.363 56.2096C89.3778 56.7022 88.2674 56.8775 87.1736 56.8942C84.8859 56.9443 82.6566 56.3515 80.3773 56.2513C78.3067 56.1595 76.3947 56.5602 74.7415 57.8544C73.3639 58.9314 71.8693 60.5262 69.9323 60.117C68.9304 59.9 68.0287 59.374 67.0769 59.0066C66.0916 58.6309 65.048 58.5641 63.996 58.5724C61.558 58.5891 59.1701 59.1652 56.7404 59.2988C54.4694 59.424 52.332 58.9565 50.2113 58.1717C48.2492 57.4369 46.3622 56.5101 44.3918 55.8004C42.4631 55.1075 40.4259 54.6399 38.3636 54.7484C36.2178 54.8653 34.1973 55.6168 32.2436 56.4517C30.2898 57.2866 28.3361 58.1967 26.2237 58.5307C23.8692 58.9064 21.498 58.5808 19.2103 57.988C16.9476 57.4035 14.7435 56.627 12.4724 56.0509C10.836 55.6335 9.11601 55.191 7.4211 55.4164C5.6594 55.6502 3.89769 56.4517 2.35307 57.295C1.57659 57.7208 0.875266 58.2301 0.157227 58.6893C0.182274 59.0233 0.207319 59.3656 0.232367 59.6996C0.992153 59.232 1.68513 58.6559 2.46162 58.2051C3.39674 57.6456 4.45709 57.1864 5.50911 56.794Z" fill="white"/>
<path d="M15.8955 30.911C17.4234 30.8024 18.8762 30.9527 20.354 31.3785C22.099 31.8878 23.7605 32.6727 25.5389 33.04C27.0835 33.3573 28.8286 33.374 30.2062 32.5224C31.5755 31.6875 32.6108 30.3265 34.2639 30.0259C36.2761 29.6669 38.3467 30.4935 40.3673 30.5019C42.5214 30.5102 44.6588 30.2096 46.7879 29.8923C48.8335 29.5918 50.9125 29.2328 52.9914 29.3163C55.0704 29.3997 57.116 29.8506 59.1866 29.9925C61.2572 30.1345 63.2527 29.7922 65.2732 29.358C67.3439 28.9155 69.3978 28.3728 71.4601 27.8802C75.6347 26.8699 79.9513 26.0099 84.2595 26.5777C88.0919 27.087 91.9659 27.8802 95.84 28.3394C95.6897 28.0388 95.5395 27.7299 95.3892 27.4293C92.3166 27.0536 89.2691 26.4858 86.2133 26.0183C84.2762 25.7177 82.3559 25.5006 80.3938 25.5758C78.3148 25.6509 76.2526 25.9765 74.2237 26.394C72.1113 26.8282 70.0156 27.3792 67.92 27.8885C65.866 28.3895 63.762 28.9489 61.658 29.1493C59.5373 29.3496 57.4416 28.9656 55.3459 28.7067C53.292 28.4479 51.3132 28.4563 49.2593 28.7151C47.1469 28.9823 45.0596 29.3663 42.9389 29.5584C41.8702 29.6502 40.7931 29.717 39.7244 29.6669C38.6557 29.6168 37.6037 29.3663 36.5433 29.2328C35.6165 29.1159 34.6647 29.0741 33.7463 29.2996C32.9865 29.4916 32.2935 29.8924 31.6757 30.3599C31.0495 30.8275 30.4734 31.3702 29.8138 31.7876C29.0957 32.2385 28.2858 32.3971 27.4426 32.4055C25.6308 32.4389 23.9108 31.7292 22.2326 31.1281C20.6629 30.5686 19.0682 30.0927 17.39 30.0426C14.3676 29.9508 11.2783 30.744 8.42287 31.6791C7.10368 32.1049 5.79283 32.5892 4.49869 33.1402C4.34005 33.5159 4.18142 33.8833 4.03113 34.259C4.88276 33.8833 5.75109 33.5326 6.61942 33.207C9.58342 32.0715 12.7227 31.1364 15.8955 30.911Z" fill="white"/>
<path d="M27.8683 8.7017C29.3294 8.30093 30.7571 7.76658 32.2015 7.30737C33.9716 6.73962 35.7667 6.30545 37.6119 6.08002C41.3858 5.62081 45.1931 5.86294 48.9753 5.57906C50.8706 5.43713 52.7659 5.15325 54.5944 4.61889C55.1788 4.44356 55.7716 4.29327 56.3644 4.15134C59.3869 3.44999 62.4594 2.95738 65.5319 2.55662C64.8974 2.34788 64.2629 2.15585 63.6283 1.97217C61.5827 2.27274 59.5371 2.62341 57.5166 3.04088C55.7716 3.3999 54.0767 3.9593 52.3317 4.30162C48.5912 5.02801 44.7589 4.83598 40.9767 4.98627C39.048 5.06141 37.1109 5.23675 35.2156 5.62081C33.5124 5.97148 31.8592 6.52254 30.2144 7.07359C28.2607 7.73318 26.2235 8.43453 24.1862 8.33434C23.8606 8.57647 23.535 8.82694 23.2094 9.07742C23.4264 9.11917 23.6435 9.15257 23.869 9.16927C25.2215 9.30285 26.5741 9.06072 27.8683 8.7017Z" fill="white"/>
<path d="M39.7662 93.2134C37.4784 93.0046 35.1824 92.7291 32.878 92.871C31.7759 92.9378 30.6821 93.1048 29.6134 93.3971C28.5948 93.6809 27.6179 94.0567 26.616 94.3739C25.6224 94.6912 24.6122 94.9584 23.5685 95.0168C22.4998 95.0753 21.4561 94.8999 20.4292 94.6077C18.4921 94.0483 16.6386 93.1716 14.618 92.9712C14.9353 93.3136 15.2526 93.6559 15.5782 93.9982C16.9058 94.2821 18.1832 94.7747 19.494 95.2005C20.4542 95.5094 21.4311 95.7682 22.4414 95.8517C23.4683 95.9352 24.512 95.81 25.5139 95.5679C27.5261 95.0836 29.4047 94.1568 31.4669 93.8563C33.7213 93.5306 35.9923 93.6976 38.2466 93.9064C40.4758 94.1151 42.7051 94.3656 44.9511 94.2069C45.4604 94.1735 45.9613 94.1151 46.4623 94.0316C46.646 93.7227 46.8213 93.4138 46.9883 93.0965C46.7712 93.1382 46.5458 93.1716 46.3287 93.205C44.1579 93.5557 41.9453 93.4138 39.7662 93.2134Z" fill="white"/>
</svg>
